<?xml version="1.0" encoding="UTF-8" standalone="no"?>
<!-- Created with Inkscape (http://www.inkscape.org/) -->

<svg
   width="300mm"
   height="300mm"
   viewBox="0 0 300 300"
   version="1.1"
   id="svg1"
   inkscape:version="1.3.2 (091e20e, 2023-11-25)"
   sodipodi:docname="loquax.svg"
   inkscape:export-filename="loquax.png"
   inkscape:export-xdpi="96"
   inkscape:export-ydpi="96"
   xmlns:inkscape="http://www.inkscape.org/namespaces/inkscape"
   xmlns:sodipodi="http://sodipodi.sourceforge.net/DTD/sodipodi-0.dtd"
   xmlns:xlink="http://www.w3.org/1999/xlink"
   xmlns="http://www.w3.org/2000/svg"
   xmlns:svg="http://www.w3.org/2000/svg">
  <sodipodi:namedview
     id="namedview1"
     pagecolor="#ffffff"
     bordercolor="#000000"
     borderopacity="0.25"
     inkscape:showpageshadow="2"
     inkscape:pageopacity="0.0"
     inkscape:pagecheckerboard="0"
     inkscape:deskcolor="#d1d1d1"
     inkscape:document-units="mm"
     inkscape:zoom="0.39328504"
     inkscape:cx="43.225647"
     inkscape:cy="464.04003"
     inkscape:window-width="2400"
     inkscape:window-height="1126"
     inkscape:window-x="228"
     inkscape:window-y="264"
     inkscape:window-maximized="0"
     inkscape:current-layer="layer1" />
  <defs
     id="defs1">
    <inkscape:path-effect
       effect="bspline"
       id="path-effect5"
       is_visible="true"
       lpeversion="1.3"
       weight="33.333333"
       steps="2"
       helper_size="0"
       apply_no_weight="true"
       apply_with_weight="true"
       only_selected="false"
       uniform="false" />
    <inkscape:path-effect
       effect="bspline"
       id="path-effect4"
       is_visible="true"
       lpeversion="1.3"
       weight="33.333333"
       steps="2"
       helper_size="0"
       apply_no_weight="true"
       apply_with_weight="true"
       only_selected="false"
       uniform="false" />
    <linearGradient
       id="linearGradient1"
       inkscape:collect="always">
      <stop
         style="stop-color:#b88808;stop-opacity:0.99642855;"
         offset="0"
         id="stop1" />
      <stop
         style="stop-color:#e6b22a;stop-opacity:0.94999999;"
         offset="1"
         id="stop2" />
    </linearGradient>
    <linearGradient
       id="linearGradient20"
       inkscape:swatch="gradient">
      <stop
         style="stop-color:#cfcfd0;stop-opacity:1;"
         offset="0"
         id="stop21" />
      <stop
         style="stop-color:#cfcfd0;stop-opacity:0;"
         offset="1"
         id="stop22" />
    </linearGradient>
    <linearGradient
       inkscape:collect="always"
       xlink:href="#linearGradient1"
       id="linearGradient2"
       x1="0.72915649"
       y1="149.72916"
       x2="298.72916"
       y2="149.72916"
       gradientUnits="userSpaceOnUse" />
    <inkscape:path-effect
       effect="bspline"
       id="path-effect5-0"
       is_visible="true"
       lpeversion="1.3"
       weight="33.333333"
       steps="2"
       helper_size="0"
       apply_no_weight="true"
       apply_with_weight="true"
       only_selected="false"
       uniform="false" />
    <filter
       inkscape:collect="always"
       style="color-interpolation-filters:sRGB"
       id="filter57-1"
       x="-0.014793026"
       y="-0.011208595"
       width="1.0295861"
       height="1.0224172">
      <feGaussianBlur
         inkscape:collect="always"
         stdDeviation="1.0880969"
         id="feGaussianBlur57-5" />
    </filter>
    <filter
       inkscape:collect="always"
       style="color-interpolation-filters:sRGB"
       id="filter57-1-9"
       x="-0.0088850617"
       y="-0.0067321625"
       width="1.0177701"
       height="1.0134643">
      <feGaussianBlur
         inkscape:collect="always"
         stdDeviation="0.65353822"
         id="feGaussianBlur57-5-5" />
    </filter>
    <filter
       inkscape:collect="always"
       style="color-interpolation-filters:sRGB"
       id="filter58"
       x="-0.0057785259"
       y="-0.0043783575"
       width="1.0115571"
       height="1.0087567">
      <feGaussianBlur
         inkscape:collect="always"
         stdDeviation="0.42503786"
         id="feGaussianBlur58" />
    </filter>
  </defs>
  <g
     inkscape:label="Layer 1"
     inkscape:groupmode="layer"
     id="layer1">
    <circle
       style="opacity:1;fill:url(#linearGradient2);fill-opacity:1;stroke-width:0.303324"
       id="path1"
       cx="149.72916"
       cy="149.72916"
       r="149" />
    <path
       style="fill:#e9aa03;fill-opacity:1;stroke-width:0.264583"
       d="m -160.73873,48.007301 61.723673,30.004562"
       id="path3" />
    <path
       id="path5"
       style="fill:#3c3115;fill-opacity:0.904494;stroke-width:0.161696"
       d="m 126.87457,30.274883 c -1.58876,-0.01498 -2.87397,0.143354 -3.80171,0.514459 -3.71105,1.484399 -1.70282,6.374191 0.43651,17.027122 2.13931,10.65292 4.40947,27.06866 4.71505,40.38471 0.3056,13.316046 -1.3532,23.531886 -5.15156,35.232596 -3.79842,11.70071 -9.7357,24.88569 -15.93532,37.93983 -6.19963,13.05414 -12.661578,25.97725 -16.285268,36.49913 -3.6237,10.52187 -4.40952,18.64232 -0.65478,27.63615 3.75476,8.99381 12.049988,18.86031 22.484578,25.54014 10.43461,6.67983 23.00803,10.17272 34.01017,11.52612 11.00213,1.35343 20.4325,0.5676 28.5968,-1.22244 8.16427,-1.79004 15.06217,-4.58437 19.77734,-9.25596 3.01881,-2.99085 5.13698,-6.75678 6.75569,-10.97725 0.52232,-0.8512 0.93754,-1.78655 1.21062,-2.79861 l 1.73207,-6.42024 c 0.0553,-0.20512 0.0907,-0.40991 0.13331,-0.61499 0.43147,-1.34039 0.83785,-2.70393 1.19502,-4.11567 1.68677,-6.6667 2.73093,-13.97622 4.65863,-24.37791 1.92774,-10.40168 4.73899,-23.89544 7.83138,-36.86737 3.09237,-12.97195 6.46569,-25.4217 10.52193,-36.22496 4.05627,-10.80325 8.79551,-19.95998 13.25335,-27.47004 4.45788,-7.510062 8.63398,-13.372936 12.89104,-17.830796 3.68361,-3.85734 7.4165,-6.66225 5.70419,-9.37743 -1.02971,1.05365 -2.20032,2.17754 -3.36736,3.39961 -4.6279,4.84619 -9.16839,11.220618 -14.01456,19.384924 -4.84618,8.164252 -9.99794,18.118432 -14.40751,29.862772 -4.40962,11.74433 -8.07675,25.27803 -11.43851,39.38 -3.36178,14.10194 -6.4179,28.77157 -8.51357,40.07936 -1.69296,9.13491 -2.7784,16.03023 -4.09362,22.17923 0.0722,-4.69592 -3.03242,-8.96469 -7.81418,-10.18864 l -8.97371,-2.29705 38.22904,-153.920356 c 1.21293,0.33169 2.46293,0.68833 3.67002,1.01548 12.89161,3.49401 25.42113,6.70668 29.51765,9.83922 0.55181,0.42197 0.93976,0.84277 1.20631,1.26545 3.05351,-3.12451 4.85271,-5.62341 1.52241,-8.17005 -4.45332,-3.40543 -18.07478,-6.89774 -32.08941,-10.69611 -14.01464,-3.79836 -28.42206,-7.90279 -42.61134,-11.78846 -14.18927,-3.885681 -28.15992,-7.552506 -39.86059,-10.346691 -8.77549,-2.095637 -16.27382,-3.700267 -21.04011,-3.74528 z m 8.13726,9.835456 c 4.38433,0.04151 11.28197,1.517603 19.35428,3.445315 2.00895,0.47975 4.38128,1.10406 6.52347,1.63584 l -38.84242,154.664346 -18.8151,-4.81613 c -0.50539,-0.12936 -1.01068,-0.20708 -1.51489,-0.26127 0.0573,-0.16986 0.10019,-0.32869 0.15913,-0.49994 3.33333,-9.67874 9.27666,-21.56662 14.9795,-33.57473 5.70283,-12.00809 11.16511,-24.13616 14.65911,-34.8993 3.49403,-10.76313 5.01982,-20.16075 4.73871,-32.409792 -0.28111,-12.249034 -2.36929,-27.349214 -4.33714,-37.148514 -1.9679,-9.79931 -3.81519,-14.29731 -0.40157,-15.662761 0.85341,-0.341362 2.03549,-0.486904 3.49692,-0.473064 z m 28.00707,5.614965 c 2.42835,0.60928 4.71382,1.16198 7.26532,1.82237 l -38.85425,154.709506 -7.25616,-1.85732 z m 9.39251,2.36532 c 2.57277,0.67102 5.30363,1.42077 7.95554,2.12879 l -38.11293,154.808426 -8.69687,-2.2261 z m 10.07951,2.69701 c 2.86398,0.76888 5.63734,1.49033 8.54205,2.28577 0.009,0.003 0.0186,0.005 0.028,0.007 l -38.08392,154.691806 -8.59366,-2.19975 z m 10.68966,2.87979 c 2.79668,0.76907 5.59289,1.54791 8.38561,2.31963 l -38.0339,154.487486 -8.42593,-2.15675 z m 10.50473,2.90612 c 3.17744,0.87918 6.3513,1.75134 9.53925,2.63895 l -37.97799,154.260626 -9.58495,-2.45348 z m 11.65836,3.22491 c 3.03714,0.84441 6.08373,1.6891 9.09791,2.51692 l -38.23925,153.961736 -8.82644,-2.25943 z m -112.10462,163.851486 12.05725,3.08622 -2.33737,9.30648 c -4.01206,-3.87242 -7.35161,-8.15499 -9.71988,-12.3927 z m 14.18389,3.63024 7.25619,1.85732 -3.41145,13.58343 c -2.28961,-1.51522 -4.45021,-3.1948 -6.47025,-4.98762 z m 9.38336,2.40188 8.82212,2.25835 -3.99685,16.23527 c -2.89552,-1.20549 -5.71565,-2.61054 -8.40605,-4.235 z m 10.95146,2.80344 8.59312,2.19977 -4.18663,17.00668 c -2.83094,-0.72641 -5.67492,-1.60545 -8.477,-2.67174 z m 10.72298,2.74486 8.42595,2.15675 -4.02644,16.35409 c -2.77873,-0.35489 -5.6602,-0.86543 -8.57914,-1.53479 z m 10.55475,2.70131 9.58547,2.4535 -3.44692,14.00058 c -3.18033,0.077 -6.5583,-0.0803 -10.08274,-0.43221 z m 11.7148,2.9986 8.77106,2.2449 -2.46907,9.94189 c -3.02851,0.56111 -6.18721,1.00896 -9.59624,1.19288 z m 10.89986,2.79 8.43292,2.15836 c 2.03717,0.52143 4.08745,0.40913 5.95149,-0.20105 -4.2244,3.40008 -9.90849,5.55138 -16.4874,6.99385 -0.0404,0.008 -0.0854,0.0137 -0.1258,0.0226 z" />
    <path
       id="path5-8"
       style="opacity:0.33505155;fill:#6a3d04;fill-opacity:0.904494;stroke-width:0.161696"
       d="m 129.33294,28.207534 c -1.58876,-0.01498 -2.87397,0.143354 -3.80171,0.514459 -3.71105,1.484399 -1.70282,6.374191 0.43651,17.027122 2.13931,10.65292 4.40947,27.06866 4.71505,40.38471 0.3056,13.316055 -1.3532,23.531895 -5.15156,35.232605 -3.79842,11.70071 -9.73569,24.88569 -15.93531,37.93983 -6.19962,13.05414 -12.661575,25.97725 -16.285265,36.49913 -3.623705,10.52187 -4.409525,18.64232 -0.65478,27.63615 3.75476,8.99381 12.049985,18.86031 22.484575,25.54014 10.4346,6.67983 23.00802,10.17272 34.01017,11.52612 11.00213,1.35343 20.4325,0.5676 28.5968,-1.22244 8.16427,-1.79004 15.06217,-4.58437 19.77734,-9.25596 3.01881,-2.99085 5.13698,-6.75678 6.75569,-10.97725 0.52232,-0.8512 0.93754,-1.78655 1.21062,-2.79861 l 1.73207,-6.42024 c 0.0553,-0.20512 0.0907,-0.40991 0.13331,-0.61499 0.43147,-1.34039 0.83785,-2.70393 1.19502,-4.11567 1.68677,-6.6667 2.73093,-13.97622 4.65863,-24.37791 1.92774,-10.40168 4.73899,-23.89544 7.83138,-36.86737 3.09237,-12.97195 6.46569,-25.4217 10.52193,-36.22496 4.05627,-10.80325 8.79551,-19.95998 13.25335,-27.47004 4.45788,-7.510067 8.63398,-13.372945 12.89104,-17.830805 3.68361,-3.85734 7.4165,-6.66225 5.70419,-9.37743 -1.02971,1.05365 -2.20032,2.17754 -3.36736,3.39961 -4.6279,4.84619 -9.16839,11.220618 -14.01456,19.384935 -4.84618,8.16425 -9.99794,18.11843 -14.40751,29.86277 -4.40962,11.74433 -8.07675,25.27803 -11.43851,39.38 -3.36178,14.10194 -6.4179,28.77157 -8.51357,40.07936 -1.69296,9.13491 -2.7784,16.03023 -4.09362,22.17923 0.0722,-4.69592 -3.03242,-8.96469 -7.81418,-10.18864 l -8.97371,-2.29705 38.22904,-153.920365 c 1.21293,0.33169 2.46293,0.68833 3.67002,1.01548 12.89161,3.49401 25.42113,6.70668 29.51765,9.83922 0.55181,0.42197 0.93976,0.84277 1.20631,1.26545 3.05351,-3.12451 4.85271,-5.62341 1.52241,-8.17005 -4.45332,-3.40543 -18.07478,-6.89774 -32.08941,-10.69611 -14.01464,-3.79836 -28.42206,-7.90279 -42.61134,-11.78846 -14.18927,-3.885681 -28.15992,-7.552506 -39.86059,-10.346691 -8.77549,-2.095637 -16.27383,-3.700267 -21.04012,-3.74528 z m 8.13726,9.835456 c 4.38434,0.04151 11.28198,1.517603 19.35429,3.445315 2.00895,0.47975 4.38128,1.10406 6.52347,1.63584 L 124.50553,197.7885 105.69044,192.97237 c -0.50539,-0.12936 -1.01068,-0.20708 -1.51489,-0.26127 0.0573,-0.16986 0.10019,-0.32869 0.15913,-0.49994 3.33333,-9.67874 9.27666,-21.56662 14.9795,-33.57473 5.70282,-12.00809 11.1651,-24.13616 14.6591,-34.8993 3.49403,-10.76313 5.01982,-20.16075 4.73871,-32.409797 -0.28111,-12.249038 -2.36929,-27.349218 -4.33714,-37.148518 -1.9679,-9.79931 -3.81519,-14.29731 -0.40157,-15.662761 0.85341,-0.341362 2.03549,-0.486904 3.49692,-0.473064 z m 28.00708,5.614965 c 2.42835,0.60928 4.71382,1.16198 7.26532,1.82237 l -38.85426,154.709515 -7.25616,-1.85732 z m 9.39251,2.36532 c 2.57277,0.67102 5.30363,1.42077 7.95554,2.12879 L 144.7124,202.9605 l -8.69688,-2.2261 z m 10.07951,2.69701 c 2.86398,0.76888 5.63734,1.49033 8.54205,2.28577 0.009,0.003 0.0186,0.005 0.028,0.007 l -38.08392,154.691815 -8.59366,-2.19975 z m 10.68966,2.87979 c 2.79668,0.76907 5.59289,1.54791 8.38561,2.31963 l -38.0339,154.487495 -8.42593,-2.15675 z m 10.50473,2.90612 c 3.17744,0.87918 6.3513,1.75134 9.53925,2.63895 L 177.70495,211.40578 168.12,208.9523 Z m 11.65836,3.22491 c 3.03714,0.84441 6.08373,1.6891 9.09791,2.51692 l -38.23925,153.961745 -8.82644,-2.25943 z M 105.69743,221.5826 l 12.05725,3.08622 -2.33737,9.30648 c -4.01206,-3.87242 -7.35161,-8.15499 -9.71988,-12.3927 z m 14.18388,3.63024 7.25619,1.85732 -3.41145,13.58343 c -2.28961,-1.51522 -4.4502,-3.1948 -6.47024,-4.98762 z m 9.38336,2.40188 8.82212,2.25835 -3.99685,16.23527 c -2.89552,-1.20549 -5.71565,-2.61054 -8.40605,-4.235 z m 10.95147,2.80344 8.59312,2.19977 -4.18663,17.00668 c -2.83094,-0.72641 -5.67493,-1.60545 -8.47701,-2.67174 z m 10.72298,2.74486 8.42595,2.15675 -4.02644,16.35409 c -2.77873,-0.35489 -5.6602,-0.86543 -8.57914,-1.53479 z m 10.55475,2.70131 9.58547,2.4535 -3.44692,14.00058 c -3.18033,0.077 -6.5583,-0.0803 -10.08274,-0.43221 z m 11.7148,2.9986 8.77106,2.2449 -2.46907,9.94189 c -3.02851,0.56111 -6.18721,1.00896 -9.59624,1.19288 z m 10.89986,2.79 8.43292,2.15836 c 2.03717,0.52143 4.08745,0.40913 5.95149,-0.20105 -4.2244,3.40008 -9.90849,5.55138 -16.4874,6.99385 -0.0404,0.008 -0.0854,0.0137 -0.1258,0.0226 z" />
    <path
       id="path5-8-5"
       style="opacity:0.41752577;fill:#5b3b13;fill-opacity:0.66292137;stroke-width:0.161696;filter:url(#filter58)"
       d="m 132.9051,30.916188 c -1.58876,-0.01498 -2.87397,0.143354 -3.80171,0.514459 -3.71105,1.484399 -1.70282,6.374191 0.43651,17.027122 2.13931,10.65292 4.40947,27.06866 4.71505,40.38471 0.3056,13.316051 -1.3532,23.531891 -5.15156,35.232601 -3.79842,11.70071 -9.73569,24.88569 -15.93531,37.93983 -6.19962,13.05414 -12.66158,25.97725 -16.28527,36.49913 -3.623705,10.52187 -4.409525,18.64232 -0.65478,27.63615 3.75476,8.99381 12.04999,18.86031 22.48458,25.54014 10.4346,6.67983 23.00802,10.17272 34.01017,11.52612 11.00213,1.35343 20.4325,0.5676 28.5968,-1.22244 8.16427,-1.79004 15.06217,-4.58437 19.77734,-9.25596 3.01881,-2.99085 5.13698,-6.75678 6.75569,-10.97725 0.52232,-0.8512 0.93754,-1.78655 1.21062,-2.79861 l 1.73207,-6.42024 c 0.0553,-0.20512 0.0907,-0.40991 0.13331,-0.61499 0.43147,-1.34039 0.83785,-2.70393 1.19502,-4.11567 1.68677,-6.6667 2.73093,-13.97622 4.65863,-24.37791 1.92774,-10.40168 4.73899,-23.89544 7.83138,-36.86737 3.09237,-12.97195 6.46569,-25.4217 10.52193,-36.22496 4.05627,-10.80325 8.79551,-19.95998 13.25335,-27.47004 4.45788,-7.510063 8.63398,-13.372941 12.89104,-17.830801 3.68361,-3.85734 7.4165,-6.66225 5.70419,-9.37743 -1.02971,1.05365 -2.20032,2.17754 -3.36736,3.39961 -4.6279,4.84619 -9.16839,11.220618 -14.01456,19.384935 -4.84618,8.164246 -9.99794,18.118426 -14.40751,29.862766 -4.40962,11.74433 -8.07675,25.27803 -11.43851,39.38 -3.36178,14.10194 -6.4179,28.77157 -8.51357,40.07936 -1.69296,9.13491 -2.7784,16.03023 -4.09362,22.17923 0.0722,-4.69592 -3.03242,-8.96469 -7.81418,-10.18864 l -8.97371,-2.29705 38.22904,-153.920361 c 1.21293,0.33169 2.46293,0.68833 3.67002,1.01548 12.89161,3.49401 25.42113,6.70668 29.51765,9.83922 0.55181,0.42197 0.93976,0.84277 1.20631,1.26545 3.05351,-3.12451 4.85271,-5.62341 1.52241,-8.17005 -4.45332,-3.40543 -18.07478,-6.89774 -32.08941,-10.69611 -14.01464,-3.79836 -28.42206,-7.90279 -42.61134,-11.78846 -14.18927,-3.885681 -28.15992,-7.552506 -39.86059,-10.346691 -8.77549,-2.095637 -16.27383,-3.700267 -21.04012,-3.74528 z m 8.13726,9.835456 c 4.38434,0.04151 11.28198,1.517603 19.35429,3.445315 2.00895,0.47975 4.38128,1.10406 6.52347,1.63584 L 128.07769,200.49715 109.2626,195.68102 c -0.50539,-0.12936 -1.01068,-0.20708 -1.51489,-0.26127 0.0573,-0.16986 0.10019,-0.32869 0.15913,-0.49994 3.33333,-9.67874 9.27666,-21.56662 14.9795,-33.57473 5.70282,-12.00809 11.1651,-24.13616 14.6591,-34.8993 3.49403,-10.76313 5.01982,-20.16075 4.73871,-32.409793 -0.28111,-12.249038 -2.36929,-27.349218 -4.33714,-37.148518 -1.9679,-9.79931 -3.81519,-14.29731 -0.40157,-15.662761 0.85341,-0.341362 2.03549,-0.486904 3.49692,-0.473064 z m 28.00708,5.614965 c 2.42835,0.60928 4.71382,1.16198 7.26532,1.82237 l -38.85426,154.709511 -7.25616,-1.85732 z m 9.39251,2.36532 c 2.57277,0.67102 5.30363,1.42077 7.95554,2.12879 l -38.11293,154.808431 -8.69688,-2.2261 z m 10.07951,2.69701 c 2.86398,0.76888 5.63734,1.49033 8.54205,2.28577 0.009,0.003 0.0186,0.005 0.028,0.007 l -38.08392,154.691811 -8.59366,-2.19975 z m 10.68966,2.87979 c 2.79668,0.76907 5.59289,1.54791 8.38561,2.31963 l -38.0339,154.487491 -8.42593,-2.15675 z m 10.50473,2.90612 c 3.17744,0.87918 6.3513,1.75134 9.53925,2.63895 l -37.97799,154.260631 -9.58495,-2.45348 z m 11.65836,3.22491 c 3.03714,0.84441 6.08373,1.6891 9.09791,2.51692 l -38.23925,153.961741 -8.82644,-2.25943 z m -112.10462,163.851491 12.05725,3.08622 -2.33737,9.30648 c -4.01206,-3.87242 -7.35161,-8.15499 -9.71988,-12.3927 z m 14.18388,3.63024 7.25619,1.85732 -3.41145,13.58343 c -2.28961,-1.51522 -4.4502,-3.1948 -6.47024,-4.98762 z m 9.38336,2.40188 8.82212,2.25835 -3.99685,16.23527 c -2.89552,-1.20549 -5.71565,-2.61054 -8.40605,-4.235 z m 10.95147,2.80344 8.59312,2.19977 -4.18663,17.00668 c -2.83094,-0.72641 -5.67493,-1.60545 -8.47701,-2.67174 z m 10.72298,2.74486 8.42595,2.15675 -4.02644,16.35409 c -2.77873,-0.35489 -5.6602,-0.86543 -8.57914,-1.53479 z m 10.55475,2.70131 9.58547,2.4535 -3.44692,14.00058 c -3.18033,0.077 -6.5583,-0.0803 -10.08274,-0.43221 z m 11.7148,2.9986 8.77106,2.2449 -2.46907,9.94189 c -3.02851,0.56111 -6.18721,1.00896 -9.59624,1.19288 z m 10.89986,2.79 8.43292,2.15836 c 2.03717,0.52143 4.08745,0.40913 5.95149,-0.20105 -4.2244,3.40008 -9.90849,5.55138 -16.4874,6.99385 -0.0404,0.008 -0.0854,0.0137 -0.1258,0.0226 z" />
    <path
       id="path5-1-5"
       style="opacity:0.399485;fill:#3c3115;fill-opacity:0.904494;stroke-width:0.161696;filter:url(#filter57-1)"
       d="m 80.339744,39.909271 c -1.58876,-0.01498 -2.87397,0.143354 -3.80171,0.514459 -3.71105,1.484399 -1.70282,6.374191 0.43651,17.027122 2.13931,10.65292 4.40947,27.06866 4.71505,40.38471 0.3056,13.316048 -1.3532,23.531888 -5.15156,35.232598 -3.79842,11.70071 -9.7357,24.88569 -15.93532,37.93983 -6.19963,13.05414 -12.661583,25.97725 -16.285276,36.49913 -3.6237,10.52187 -4.40952,18.64232 -0.65478,27.63615 3.754763,8.99381 12.049996,18.86031 22.484586,25.54014 10.43461,6.67983 23.00803,10.17272 34.010166,11.52612 11.00213,1.35343 20.4325,0.5676 28.5968,-1.22244 8.16427,-1.79004 15.06217,-4.58437 19.77734,-9.25596 3.01881,-2.99085 5.13698,-6.75678 6.75569,-10.97725 0.52232,-0.8512 0.93754,-1.78655 1.21062,-2.79861 l 1.73207,-6.42024 c 0.0553,-0.20512 0.0907,-0.40991 0.13331,-0.61499 0.43147,-1.34039 0.83785,-2.70393 1.19502,-4.11567 1.68677,-6.6667 2.73093,-13.97622 4.65863,-24.37791 1.92774,-10.40168 4.73899,-23.89544 7.83138,-36.86737 3.09237,-12.97195 6.46569,-25.4217 10.52193,-36.22496 4.05627,-10.80325 8.79551,-19.95998 13.25335,-27.47004 4.45788,-7.51006 8.63398,-13.372938 12.89104,-17.830798 3.68361,-3.85734 7.4165,-6.66225 5.70419,-9.37743 -1.02971,1.05365 -2.20032,2.17754 -3.36736,3.39961 -4.6279,4.84619 -9.16839,11.220618 -14.01456,19.384928 -4.84618,8.16425 -9.99794,18.11843 -14.40751,29.86277 -4.40962,11.74433 -8.07675,25.27803 -11.43851,39.38 -3.36178,14.10194 -6.4179,28.77157 -8.51357,40.07936 -1.69296,9.13491 -2.7784,16.03023 -4.09362,22.17923 0.0722,-4.69592 -3.03242,-8.96469 -7.81418,-10.18864 l -8.97371,-2.29705 38.22904,-153.920358 c 1.21293,0.33169 2.46293,0.68833 3.67002,1.01548 12.89161,3.49401 25.42113,6.70668 29.51765,9.83922 0.55181,0.42197 0.93976,0.84277 1.20631,1.26545 3.05351,-3.12451 4.85271,-5.62341 1.52241,-8.17005 -4.45332,-3.40543 -18.07478,-6.89774 -32.08941,-10.69611 -14.01464,-3.79836 -28.42206,-7.90279 -42.61134,-11.78846 -14.18927,-3.885681 -28.15992,-7.552506 -39.86059,-10.346691 -8.775486,-2.095637 -16.273816,-3.700267 -21.040106,-3.74528 z m 8.13726,9.835456 c 4.38433,0.04151 11.28197,1.517603 19.354276,3.445315 2.00895,0.47975 4.38128,1.10406 6.52347,1.63584 L 75.512334,209.49023 56.697234,204.6741 c -0.50539,-0.12936 -1.01068,-0.20708 -1.51489,-0.26127 0.0573,-0.16986 0.10019,-0.32869 0.15913,-0.49994 3.33333,-9.67874 9.27666,-21.56662 14.9795,-33.57473 5.70283,-12.00809 11.16511,-24.13616 14.65911,-34.8993 3.49403,-10.76313 5.01982,-20.16075 4.73871,-32.40979 -0.28111,-12.249038 -2.36929,-27.349218 -4.33714,-37.148518 -1.9679,-9.79931 -3.81519,-14.29731 -0.40157,-15.662761 0.85341,-0.341362 2.03549,-0.486904 3.49692,-0.473064 z m 28.007066,5.614965 c 2.42835,0.60928 4.71382,1.16198 7.26532,1.82237 l -38.854246,154.709508 -7.25616,-1.85732 z m 9.39251,2.36532 c 2.57277,0.67102 5.30363,1.42077 7.95554,2.12879 l -38.112926,154.808428 -8.69687,-2.2261 z m 10.07951,2.69701 c 2.86398,0.76888 5.63734,1.49033 8.54205,2.28577 0.009,0.003 0.0186,0.005 0.028,0.007 L 106.44222,217.4066 97.848564,215.20685 Z m 10.68966,2.87979 c 2.79668,0.76907 5.59289,1.54791 8.38561,2.31963 l -38.0339,154.487488 -8.42593,-2.15675 z m 10.50473,2.90612 c 3.17744,0.87918 6.3513,1.75134 9.53925,2.63895 l -37.97799,154.260628 -9.58495,-2.45348 z m 11.65836,3.22491 c 3.03714,0.84441 6.08373,1.6891 9.09791,2.51692 L 139.6675,225.9115 130.84106,223.65207 Z M 56.704224,233.28433 l 12.05725,3.08622 -2.33737,9.30648 c -4.01206,-3.87242 -7.35161,-8.15499 -9.71988,-12.3927 z m 14.18389,3.63024 7.25619,1.85732 -3.41145,13.58343 c -2.28961,-1.51522 -4.45021,-3.1948 -6.47025,-4.98762 z m 9.38336,2.40188 8.82212,2.25835 -3.99685,16.23527 c -2.89552,-1.20549 -5.71565,-2.61054 -8.40605,-4.235 z m 10.95146,2.80344 8.59312,2.19977 -4.18663,17.00668 c -2.83094,-0.72641 -5.67492,-1.60545 -8.477,-2.67174 z m 10.722976,2.74486 8.42595,2.15675 -4.02644,16.35409 c -2.77873,-0.35489 -5.6602,-0.86543 -8.579136,-1.53479 z m 10.55475,2.70131 9.58547,2.4535 -3.44692,14.00058 c -3.18033,0.077 -6.5583,-0.0803 -10.08274,-0.43221 z m 11.7148,2.9986 8.77106,2.2449 -2.46907,9.94189 c -3.02851,0.56111 -6.18721,1.00896 -9.59624,1.19288 z m 10.89986,2.79 8.43292,2.15836 c 2.03717,0.52143 4.08745,0.40913 5.95149,-0.20105 -4.2244,3.40008 -9.90849,5.55138 -16.4874,6.99385 -0.0404,0.008 -0.0854,0.0137 -0.1258,0.0226 z" />
    <path
       id="path5-1-5-9"
       style="opacity:0.29639175;fill:#45340c;fill-opacity:0.90449399;stroke-width:0.161696;filter:url(#filter57-1-9)"
       d="m 76.948143,41.677516 c -1.58876,-0.01498 -2.87397,0.143354 -3.80171,0.514459 -3.71105,1.484399 -1.70282,6.374191 0.43651,17.027122 2.13931,10.65292 4.40947,27.06866 4.71505,40.38471 0.3056,13.316043 -1.3532,23.531883 -5.15156,35.232593 -3.79842,11.70071 -9.7357,24.8857 -15.93532,37.93984 -6.19963,13.05414 -12.661583,25.97725 -16.285276,36.49913 -3.6237,10.52187 -4.40952,18.64232 -0.65478,27.63615 3.754763,8.99381 12.049996,18.86031 22.484586,25.54014 10.43461,6.67983 23.00803,10.17272 34.010166,11.52612 11.002131,1.35343 20.432501,0.5676 28.596801,-1.22244 8.16427,-1.79004 15.06217,-4.58437 19.77734,-9.25596 3.01881,-2.99085 5.13698,-6.75678 6.75569,-10.97725 0.52232,-0.8512 0.93754,-1.78655 1.21062,-2.79861 l 1.73207,-6.42024 c 0.0553,-0.20512 0.0907,-0.40991 0.13331,-0.61499 0.43147,-1.34039 0.83785,-2.70393 1.19502,-4.11567 1.68677,-6.6667 2.73093,-13.97622 4.65863,-24.37791 1.92774,-10.40168 4.73899,-23.89544 7.83138,-36.86737 3.09237,-12.97195 6.46569,-25.4217 10.52193,-36.22497 4.05627,-10.80325 8.79551,-19.95998 13.25335,-27.47004 4.45788,-7.51006 8.63398,-13.37293 12.89104,-17.830793 3.68361,-3.85734 7.4165,-6.66225 5.70419,-9.37743 -1.02971,1.05365 -2.20032,2.17754 -3.36736,3.39961 -4.6279,4.84619 -9.16839,11.220613 -14.01456,19.384923 -4.84618,8.16425 -9.99794,18.11843 -14.40751,29.86277 -4.40962,11.74434 -8.07675,25.27804 -11.43851,39.38001 -3.36178,14.10194 -6.4179,28.77157 -8.51357,40.07936 -1.69296,9.13491 -2.7784,16.03023 -4.09362,22.17923 0.0722,-4.69592 -3.03242,-8.96469 -7.81418,-10.18864 l -8.97371,-2.29705 38.22904,-153.920363 c 1.21293,0.33169 2.46293,0.68833 3.67002,1.01548 12.89161,3.49401 25.42113,6.70668 29.51765,9.83922 0.55181,0.42197 0.93976,0.84277 1.20631,1.26545 3.05351,-3.12451 4.85271,-5.62341 1.52241,-8.17005 -4.45332,-3.40543 -18.07478,-6.89774 -32.08941,-10.69611 -14.01464,-3.79836 -28.42206,-7.90279 -42.61134,-11.78846 C 123.65957,51.883806 109.68892,48.216981 97.988249,45.422796 89.212763,43.327159 81.714433,41.722529 76.948143,41.677516 Z m 8.13726,9.835456 c 4.38433,0.04151 11.28197,1.517603 19.354277,3.445315 2.00895,0.47975 4.38128,1.10406 6.52347,1.63584 l -38.842417,154.664353 -18.8151,-4.81613 c -0.50539,-0.12936 -1.01068,-0.20708 -1.51489,-0.26127 0.0573,-0.16986 0.10019,-0.32869 0.15913,-0.49994 3.33333,-9.67874 9.27666,-21.56662 14.9795,-33.57473 5.70283,-12.00809 11.16511,-24.13617 14.65911,-34.89931 3.49403,-10.76313 5.01982,-20.16075 4.73871,-32.40979 -0.28111,-12.249033 -2.36929,-27.349213 -4.33714,-37.148513 -1.9679,-9.79931 -3.81519,-14.29731 -0.40157,-15.662761 0.85341,-0.341362 2.03549,-0.486904 3.49692,-0.473064 z m 28.007067,5.614965 c 2.42835,0.60928 4.71382,1.16198 7.26532,1.82237 L 81.503543,213.65982 74.247383,211.8025 Z m 9.39251,2.36532 c 2.57277,0.67102 5.30363,1.42077 7.95554,2.12879 l -38.112927,154.808433 -8.69687,-2.2261 z m 10.07951,2.69701 c 2.86398,0.76888 5.63734,1.49033 8.54205,2.28577 0.009,0.003 0.0186,0.005 0.028,0.007 L 103.05062,219.17485 94.456963,216.9751 Z m 10.68966,2.87979 c 2.79668,0.76907 5.59289,1.54791 8.38561,2.31963 l -38.0339,154.487493 -8.42593,-2.15675 z m 10.50473,2.90612 c 3.17744,0.87918 6.3513,1.75134 9.53925,2.63895 l -37.97799,154.260633 -9.58495,-2.45348 z m 11.65836,3.22491 c 3.03714,0.84441 6.08373,1.6891 9.09791,2.51692 L 136.2759,227.67975 127.44946,225.42032 Z M 53.312623,235.05258 l 12.05725,3.08622 -2.33737,9.30648 c -4.01206,-3.87242 -7.35161,-8.15499 -9.71988,-12.3927 z m 14.18389,3.63024 7.25619,1.85732 -3.41145,13.58343 c -2.28961,-1.51522 -4.45021,-3.1948 -6.47025,-4.98762 z m 9.38336,2.40188 8.82212,2.25835 -3.99685,16.23527 c -2.89552,-1.20549 -5.71565,-2.61054 -8.40605,-4.235 z m 10.95146,2.80344 8.59312,2.19977 -4.18663,17.00668 c -2.83094,-0.72641 -5.67492,-1.60545 -8.477,-2.67174 z m 10.722976,2.74486 8.425951,2.15675 -4.02644,16.35409 c -2.77873,-0.35489 -5.660201,-0.86543 -8.579137,-1.53479 z m 10.554751,2.70131 9.58547,2.4535 -3.44692,14.00058 c -3.18033,0.077 -6.5583,-0.0803 -10.08274,-0.43221 z m 11.7148,2.9986 8.77106,2.2449 -2.46907,9.94189 c -3.02851,0.56111 -6.18721,1.00896 -9.59624,1.19288 z m 10.89986,2.79 8.43292,2.15836 c 2.03717,0.52143 4.08745,0.40913 5.95149,-0.20105 -4.2244,3.40008 -9.90849,5.55138 -16.4874,6.99385 -0.0404,0.008 -0.0854,0.0137 -0.1258,0.0226 z" />
  </g>
</svg>
